<!-- icon666.com - MILLIONS vector ICONS FREE --><svg version="1.1" id="Layer_1" xmlns="http://www.w3.org/2000/svg" xmlns:xlink="http://www.w3.org/1999/xlink" x="0px" y="0px" viewBox="0 0 512.001 512.001" style="enable-background:new 0 0 512.001 512.001;" xml:space="preserve"><polyline style="fill:#FF9F34;" points="445.752,293.04 502.893,262.761 452.477,242.383 502.893,182.326 425.041,194.182 432.457,139.324 344.109,209.892 354.603,46.635 295.062,87.827 255.998,8.084 216.936,87.827 157.392,46.635 167.89,209.892 79.54,139.324 86.954,194.182 9.105,182.326 59.522,242.383 9.105,262.761 177.011,351.733 132.552,408.45 240.536,420.127 255.795,132.482 255.998,117.831 256.203,132.482 271.462,420.127 379.445,408.45 334.986,351.733 422.885,305.158 "></polyline><g><path style="fill:#F47D25;" d="M79.598,217.286c-0.002-0.002-0.003-0.004-0.005-0.006L56.33,189.518l-47.225-7.192l50.416,60.057 l15.832-6.918C79.617,233.329,88.111,227.447,79.598,217.286z"></path><path style="fill:#F47D25;" d="M198.15,207.416c0,0,0-0.008,0-0.012l-8.834-138.685l-31.923-22.084l10.498,163.257l12.872,9.598 C180.929,219.606,199.764,232.757,198.15,207.416z"></path><path style="fill:#F47D25;" d="M344.602,209.497l-1.124,17.494c-0.14,2.631-0.525,22.918,22.204,4.764 c0.01-0.008,0.018-0.014,0.027-0.022l60.825-48.583l5.925-43.827L344.602,209.497z"></path><path style="fill:#F47D25;" d="M189.142,385.866l20.59-26.266c0.001-0.002,0.003-0.004,0.004-0.006 c12.605-16.081-8.875-28.854-8.935-28.889L44.594,248.417L9.105,262.761l167.906,88.973l-44.459,56.716l107.983,11.677 l1.513-28.538L189.142,385.866z"></path></g><path style="fill:#A67A4B;" d="M272.443,438.602l-16.444-309.976l-18.825,354.915c-0.008,0.143-1.012,20.374,18.825,20.374 s18.834-20.232,18.828-20.374l-1.093-20.577"></path><path style="fill:#93643A;" d="M260.172,484.242l1.454-249.557l-5.627-106.058l-18.825,354.915 c-0.008,0.143-1.012,20.374,18.825,20.374c5.175,0,8.921-1.383,11.648-3.42C260.15,494.979,260.171,484.347,260.172,484.242z"></path><g><path style="fill:#231F20;" d="M406.978,224.754l-5.047,3.612c-3.63,2.598-4.467,7.648-1.868,11.279 c1.578,2.205,4.061,3.38,6.579,3.38c1.63,0,3.274-0.492,4.699-1.511l5.047-3.612c3.63-2.598,4.468-7.648,1.868-11.279 C415.658,222.989,410.607,222.157,406.978,224.754z"></path><path style="fill:#231F20;" d="M204.328,218.647c-4.457,0.259-7.86,4.082-7.601,8.539l0.292,5.039 c0.25,4.298,3.813,7.615,8.064,7.615c0.157,0,0.317-0.004,0.476-0.014c4.457-0.259,7.86-4.082,7.601-8.539l-0.292-5.039 C212.609,221.791,208.783,218.381,204.328,218.647z"></path><path style="fill:#231F20;" d="M505.923,255.266l-40.1-16.208l43.262-51.534c2.163-2.577,2.504-6.224,0.857-9.157 c-1.646-2.933-4.935-4.54-8.265-4.032L434.5,184.564l5.97-44.157c0.442-3.274-1.151-6.488-4.025-8.117 c-2.875-1.628-6.448-1.343-9.032,0.717l-74.064,59.157l9.322-145.01c0.199-3.094-1.388-6.029-4.086-7.555 c-2.698-1.527-6.032-1.376-8.581,0.387L298.19,75.833L263.259,4.527C261.901,1.757,259.084,0,255.999,0 c-3.086,0-5.903,1.757-7.26,4.527l-34.929,71.306l-51.818-35.848c-2.55-1.763-5.883-1.914-8.58-0.387 c-2.698,1.526-4.286,4.461-4.086,7.555l9.324,145.01l-74.063-59.157c-2.582-2.062-6.157-2.347-9.031-0.717 s-4.468,4.843-4.026,8.117l5.968,44.157l-67.174-10.229c-3.325-0.508-6.617,1.099-8.265,4.032 c-1.647,2.933-1.306,6.579,0.857,9.157l43.261,51.534L6.075,255.266c-2.915,1.178-4.882,3.939-5.045,7.077 c-0.162,3.14,1.51,6.088,4.288,7.56l159.367,84.448l-38.496,49.111c-1.812,2.312-2.228,5.423-1.087,8.129 c1.141,2.706,3.661,4.58,6.579,4.895l100.376,10.854l-2.959,55.785c-0.067,1.3-0.426,12.935,7.456,21.232 c3.311,3.486,9.373,7.642,19.443,7.642c10.038,0,16.091-4.13,19.4-7.596c7.863-8.234,7.564-19.926,7.5-21.292l-1.093-20.577 c-0.236-4.459-4.062-7.909-8.501-7.644c-4.459,0.237-7.88,4.043-7.644,8.501l1.089,20.502c0.059,1.662-0.379,6.585-3.072,9.372 c-1.668,1.727-4.179,2.565-7.679,2.565s-6.011-0.839-7.678-2.565c-2.69-2.785-3.129-7.706-3.075-9.297l10.754-202.72l7.39,139.305 c0,0.005,0.001,0.011,0.002,0.017l0.979,18.459c0.236,4.458,4.051,7.899,8.501,7.644c4.458-0.237,7.882-4.042,7.644-8.501 l-0.575-10.834l100.374-10.854c2.919-0.315,5.438-2.189,6.579-4.895c1.143-2.707,0.725-5.817-1.087-8.129l-38.497-49.11 l79.36-42.051c3.945-2.09,5.449-6.984,3.358-10.929c-2.089-3.944-6.979-5.448-10.929-3.358L331.2,344.59 c-2.115,1.121-3.625,3.122-4.122,5.463c-0.498,2.341,0.069,4.784,1.546,6.668l35.476,45.256l-85.017,9.192l-3.833-72.255 l71.895-51.457l32.8,9.858c0.777,0.234,1.56,0.344,2.33,0.344c3.476,0,6.687-2.26,7.739-5.759c1.285-4.276-1.139-8.784-5.414-10.07 l-20.842-6.265l26.467-18.943c3.63-2.598,4.467-7.649,1.868-11.279c-2.598-3.631-7.651-4.467-11.279-1.868l-69.498,49.742 l2.137-36.752c0.259-4.457-3.144-8.281-7.601-8.54c-4.474-0.279-8.281,3.144-8.54,7.601l-2.896,49.786l-20.181,14.445 l-4.857-91.568l26.983-23.815c3.347-2.955,3.666-8.063,0.711-11.411c-2.956-3.348-8.064-3.667-11.411-0.711l-17.377,15.336 l-3.999-75.388l-0.202-14.484c-0.061-4.42-3.662-7.972-8.083-7.972s-8.022,3.552-8.084,7.972l-0.202,14.488l-1.895,35.717 l-19.481-17.193c-3.348-2.953-8.456-2.637-11.411,0.711c-2.955,3.347-2.635,8.456,0.711,11.411l29.087,25.672l-6.962,131.237 l-20.181-14.445l-2.895-49.786c-0.259-4.457-4.088-7.854-8.54-7.601c-4.457,0.259-7.86,4.083-7.601,8.54l2.137,36.751 l-69.497-49.741c-3.63-2.6-8.68-1.762-11.279,1.868c-2.599,3.63-1.762,8.681,1.868,11.279l26.467,18.943l-20.843,6.265 c-4.276,1.285-6.7,5.794-5.415,10.07c1.052,3.5,4.263,5.759,7.739,5.759c0.771,0,1.554-0.111,2.33-0.344l32.801-9.86l71.895,51.455 l-3.833,72.254l-85.018-9.192l35.477-45.256c1.477-1.884,2.043-4.326,1.546-6.668c-0.498-2.342-2.007-4.342-4.123-5.463 L28.235,263.748l34.316-13.87c2.399-0.969,4.19-3.03,4.815-5.54c0.626-2.511,0.012-5.171-1.652-7.153l-36.634-43.64l56.658,8.629 c2.518,0.388,5.07-0.441,6.886-2.227c1.816-1.785,2.685-4.323,2.343-6.848l-4.713-34.872l72.592,57.981 c2.502,1.998,5.945,2.33,8.782,0.852s4.536-4.494,4.331-7.688l-9.426-146.584l45.805,31.688c1.936,1.339,4.361,1.767,6.639,1.175 c2.279-0.595,4.184-2.153,5.22-4.266l31.803-64.923l31.803,64.923c1.036,2.114,2.942,3.671,5.221,4.266 c2.273,0.591,4.702,0.165,6.638-1.175l45.803-31.687l-9.423,146.584c-0.205,3.194,1.493,6.209,4.331,7.688 c2.837,1.481,6.28,1.146,8.782-0.852l72.591-57.981l-4.715,34.872c-0.341,2.524,0.527,5.061,2.343,6.848 c1.816,1.785,4.37,2.609,6.886,2.228l56.662-8.63l-36.634,43.64c-1.664,1.982-2.279,4.641-1.652,7.153 c0.625,2.51,2.416,4.57,4.815,5.54l34.317,13.87l-41.796,22.149c-3.945,2.09-5.449,6.984-3.358,10.929 c2.09,3.945,6.983,5.449,10.929,3.358l57.141-30.279c2.778-1.471,4.451-4.42,4.288-7.56 C510.805,259.206,508.838,256.444,505.923,255.266z"></path></g></svg>